<?xml version="1.0" encoding="UTF-8"?>
<svg width="20px" height="14px" viewBox="0 0 20 14" version="1.1" xmlns="http://www.w3.org/2000/svg" xmlns:xlink="http://www.w3.org/1999/xlink">
    <!-- Generator: Sketch 57 (83077) - https://sketch.com -->
    <title>Fill 1</title>
    <desc>Created with Sketch.</desc>
    <g id="Page-2" stroke="none" stroke-width="1" fill="none" fill-rule="evenodd">
        <g id="Artboard" transform="translate(-240.000000, -149.000000)" fill="#000000">
            <path d="M240.658523,150.460938 C240.78795,150.534723 241.280483,150.807723 242.136138,151.279946 C242.991794,151.752173 243.912149,152.257594 244.897229,152.796225 C245.882312,153.334856 246.784692,153.832896 247.604394,154.290363 C248.424095,154.747833 248.869893,154.991319 248.941797,155.020833 C249.071223,155.094619 249.222219,155.149957 249.39479,155.18685 C249.567358,155.223743 249.747114,155.242188 249.934064,155.242188 C250.121015,155.242188 250.300771,155.223743 250.473339,155.18685 C250.64591,155.149957 250.796906,155.094619 250.926332,155.020833 C250.998236,154.991319 251.444034,154.747833 252.263735,154.290363 C253.083437,153.832896 253.985817,153.334856 254.9709,152.796225 C255.95598,152.257594 256.876335,151.752173 257.731991,151.279946 C258.587645,150.807723 259.08018,150.534723 259.209606,150.460938 C259.482841,150.313366 259.687764,150.032988 259.82438,149.619792 C259.960999,149.206595 259.777645,149 259.274318,149 L240.59381,149 C240.090483,149 239.907131,149.206595 240.043749,149.619792 C240.180366,150.032988 240.385288,150.313366 240.658523,150.460938 Z M259.468458,152.962238 C259.31027,153.036024 258.796166,153.305335 257.926129,153.770183 C257.056096,154.235028 256.117764,154.736761 255.111111,155.275391 C254.104458,155.814022 253.180509,156.308374 252.339235,156.758463 C251.49796,157.208552 251.026998,157.463107 250.926332,157.522137 C250.739381,157.625435 250.574005,157.68815 250.430199,157.710287 C250.286391,157.732421 250.121015,157.743488 249.934064,157.743488 C249.747114,157.743488 249.581738,157.732421 249.437929,157.710287 C249.294124,157.68815 249.128748,157.625435 248.941797,157.522137 C248.841131,157.463107 248.370168,157.208552 247.528894,156.758463 C246.68762,156.308374 245.767265,155.814022 244.767803,155.275391 C243.76834,154.736761 242.837201,154.235028 241.974355,153.770183 C241.11151,153.305335 240.601001,153.036024 240.442813,152.962238 C240.227101,152.844185 240.101271,152.829426 240.06532,152.91797 C240.029368,153.006512 240.011392,153.102429 240.011392,153.205729 C240.011392,153.25 240.011392,153.707461 240.011392,154.578125 C240.011392,155.448789 240.011392,156.393224 240.011392,157.411458 C240.011392,158.429693 240.011392,159.359372 240.011392,160.200521 C240.011392,161.041671 240.011392,161.46224 240.011392,161.46224 C240.011392,161.698352 240.137222,161.945528 240.388885,162.203776 C240.640548,162.462024 240.881422,162.591146 241.111514,162.591146 L258.799758,162.591146 C259.029848,162.591146 259.270723,162.462024 259.522385,162.203776 C259.774051,161.945528 259.899879,161.698352 259.899879,161.46224 C259.899879,161.46224 259.899879,161.041671 259.899879,160.200521 C259.899879,159.359372 259.899879,158.429693 259.899879,157.411458 C259.899879,156.393224 259.899879,155.448789 259.899879,154.578125 C259.899879,153.707461 259.899879,153.25 259.899879,153.205729 C259.899879,153.102429 259.881904,153.006512 259.845952,152.91797 C259.81,152.829426 259.684169,152.844185 259.468458,152.962238 Z" id="Fill-1"></path>
        </g>
    </g>
</svg>